<svg version="1.2" xmlns="http://www.w3.org/2000/svg" viewBox="0 0 660 164" width="105" height="26">
	<title>brand-logo-white-svg</title>
	<style>
		.s0 { fill: #ffffff } 
	</style>
	<g id="logo">
		<g id="&lt;Group&gt;">
			<path id="&lt;Compound Path&gt;" fill-rule="evenodd" class="s0" d="m132.6 0.1c0 28 0 55.8 0 83.8 0 2.4 0.1 4.8 0 7-0.4 6.6-1.6 12.3-3.5 17.5-2.4 6.8-5.7 12.9-9.6 18.3-3.9 5.5-8.4 10.3-13.3 14.6-11 9.6-23.8 17-38.8 22.5q-0.4 0.1-0.6 0.2c-0.3 0-0.4 0-0.7-0.1-11.8-4.3-22.7-10-32-16.9-2.7-2-5.3-4.1-7.7-6.3-7.2-6.6-13.8-14.2-18.4-23.4-3.1-6.2-5.7-13-6.8-21.2-0.3-2.1-0.5-4.3-0.5-6.5 0-6.8-0.1-14.1-0.1-20.9 0-9.3 0.1-18.6 0.1-27.9 0-9.5-0.1-18.9-0.1-28.4 0.3 0 0.6 0.2 0.9 0.3 12.7 6 25.7 12 38.5 18 4.3 2 8.7 4.1 13.1 6.1 0.2 0.1 0.4 0.1 0.7 0 19.6-9.1 39.2-18.3 58.9-27.5 6.6-3.1 13.3-6.2 19.9-9.2zm-79.2 56.3c-11.5-5.4-23.1-10.8-34.6-16.2-0.2-0.1-0.4-0.2-0.6-0.2q0 9.5 0 18.9c11.2 5.3 22.8 10.7 34.1 16 0.3 0.1 0.9 0.5 1.1 0.5 0.2 0 0.7-0.3 1-0.5 10-4.7 19.9-9.3 29.9-13.9 9.8-4.6 19.9-9.3 29.8-13.9 0.3-0.2 0.9-0.4 1-0.5 0-0.3 0-0.8 0-1.2 0-5.9-0.1-12-0.1-17.8q-30.8 14.4-61.6 28.8zm44.1 17.8c-0.1 0.8 0 1.9 0 2.8 0 4.4 0 9.1 0 13.3 0 1.7-0.4 3.3-0.7 4.7-1.2 5.8-3.7 10.5-6.7 14.6-6 8.2-14.1 14.3-23.5 19.2-1-0.5-2-1.1-3-1.6-6.8-3.8-12.9-8.6-17.8-14.2-2.8-3.2-5.2-6.8-7.1-11-1.4-3.3-2.5-6.6-2.8-10.8-0.2-1.4 0-3.2-0.1-4.7-5.7-2.6-11.4-5.3-17-7.9-0.2-0.1-0.4-0.2-0.6-0.2 0.2 4.9-0.2 10 0.2 14.4 0.4 4.3 1.5 8.3 2.8 11.8 2.6 7 6.4 12.9 11 18.1 8.7 10 20.1 17.6 33.1 23.2 0.4 0.2 1.1 0.5 1.3 0.5 0.1 0 0.3-0.1 0.3-0.1 15-6.3 27.8-15.1 37.1-27.2 4.6-6 8.4-13.1 10.2-21.9 0.4-2.2 0.9-4.6 0.9-7.1 0-7.9 0-16.2-0.1-24.1-5.8 2.7-11.6 5.5-17.5 8.2z"/>
		</g>
		<path id="CLUPIK" fill-rule="evenodd" class="s0" d="m222.4 138h-18.7q-13.4 0-20.8-7.2-7.3-7.1-7.3-20.6v-54.2q0-13.4 7.3-20.6 7.4-7.2 20.8-7.2h18.7q13.3 0 20.6 7.4 7.5 7.1 7.5 20.4v8.1q0 3.7-3.7 3.7h-14.4q-3.6 0-3.6-3.7v-7q0-5.5-2.4-7.7-2.2-2.4-7.6-2.4h-11.6q-5.3 0-7.7 2.4-2.2 2.2-2.2 7.7v52q0 5.5 2.2 7.9 2.4 2.2 7.7 2.2h11.6q5.4 0 7.6-2.2 2.4-2.4 2.4-7.9v-7q0-3.7 3.6-3.7h14.4q3.7 0 3.7 3.7v8.1q0 13.3-7.5 20.6-7.3 7.2-20.6 7.2zm106.5 0h-56.2q-3.6 0-3.6-3.6v-102.6q0-3.6 3.6-3.6h14.5q3.6 0 3.6 3.6v85.4q0 1.8 2.1 1.8h36q3.4 0 3.4 3.8v11.6q0 3.6-3.4 3.6zm73.1-109.8h14.3q3.8 0 3.8 3.4v78.6q0 13.3-7.6 20.6-7.3 7.2-20.6 7.2h-18.8q-13.5 0-20.8-7.2-7.4-7.1-7.4-20.6v-78.4q0-3.6 3.6-3.6h14.5q3.6 0 3.6 3.6v77.3q0 5.5 2.2 7.9 2.4 2.2 7.7 2.2h11.8q5.5 0 7.7-2.2 2.4-2.4 2.4-7.9v-77.3q0-3.6 3.6-3.6zm57.5 109.8h-14.5q-3.6 0-3.6-3.6v-102.6q0-3.6 3.6-3.6h41.6q13.4 0 20.7 7.4 7.3 7.1 7.3 20.4v16.4q0 13.4-7.3 20.7-7.3 7.2-20.7 7.2h-21.5q-2 0-2 1.8v32.3q0 3.6-3.6 3.6zm5.5-56.7h18.1q5.4 0 7.6-2.2 2.3-2.4 2.3-7.7v-14.3q0-5.5-2.3-7.7-2.2-2.4-7.6-2.4h-18.1q-1.9 0-1.9 1.9v30.5q0 1.9 1.9 1.9zm89.4-49.5v102.6q0 3.6-3.6 3.6h-14.5q-3.6 0-3.6-3.6v-102.6q0-3.6 3.6-3.6h14.5q3.6 0 3.6 3.6zm41.2 106.2h-14.5q-3.6 0-3.6-3.6v-102.6q0-3.6 3.6-3.6h14.5q3.6 0 3.6 3.6v48.7h0.3q1.4-4.1 5.3-10.6l25.9-38.1q2.3-3.6 6.7-3.6h16.7q1.9 0 2.3 1.2 0.5 1-0.9 2.7l-32.4 44.9 36.2 56.7q1.2 2.1 0.3 3.3-0.7 1-3.1 1h-12.4q-6 0-8.1-3.6l-26.1-41.8-10.7 12.6v29.2q0 3.6-3.6 3.6z"/>
	</g>
</svg>